<svg height="176" width="178" xmlns="http://www.w3.org/2000/svg"><g fill="none" fill-rule="evenodd"><path d="m126.972 32.395c-.436.907-.99 2.17-1.232 2.81-.242.641-.914 1.6-1.494 2.134s-1.292 1.275-1.583 1.648c-.29.373-.527.897-.527 1.163 0 .267-.95-.214-2.11-1.066v-.582c0-.581 1.056-.969 2.637-2.908l1.583-1.938c0-.855.316-1.596.703-1.649l.703-.097.177-1.163.175-1.164c.968.64 1.402 1.906.968 2.812zm-1.261 38.424-.235.387c-.773 0-1.484.35-1.582.776-.096.427.036 1.01.293 1.293l-1.23-.517-1.231-.517c-.257.41-.654.87-.879 1.02-.226.15-.595.272-.82.272-.226 0-.486-.038-.577-.084l-.165-.083 1.62-.931.177-.679.175-.68c.629.374 1.579.505 2.11.292l.527-1.163c.527-1.163.352-.484.615-.582l.184-.068c.689-.382 1.252-.428 1.252-.103v.979zm-6.916-47.538c-.439.873-1.846 1.455-2.285.97l-.44-.484c-.483-.753-.581-1.823-.22-2.381.363-.557 1.839-.132 3.28.944 0 0 .105.079-.335.951zm-2.272 58.99-.473.704c-.676 1.25-2.585 2.747-4.244 3.33 0 0-.888.311-1.201-.083-.447-.563.764-1.407 1.02-1.76a7.054 7.054 0 0 0 1.212-2.952c.254-1.546 1.275-3.493 2.04-5.087.285-.593.936-1.396 1.642-2.168-.177.194-.223 5.01.004 4.865.229-.145.651 2.182 0 3.15zm-8.958-3.41.259-.854c.59-1.372 1.575-2.587 2.187-2.701.613-.116 1.848-.694 2.746-1.288.897-.594 1.731-1.026 1.852-.962.12.065.402.276.372.328l-.019.039c-.425.843-2.296 1.968-2.635 2.25-.34.282-1.105 1.97-1.615 3.845s-3.573.75-3.147-.656zm1.034-35.123c.351-.581.75-.827.75-.827 1.521-.93 2.963-1.17 3.205-.53.243.64.245 1.293.009 1.454-.237.16-.672.823-.967 1.476-.295.652-.014 2.647.624 4.433 0 0 .071.198-.106.78-.175.581-1.757 1.552-2.574 1.164l-.817-.389c-.068-.532-.361-1.58-.651-2.325l-.88-1.746c-.88-1.745 1.055-2.91 1.407-3.49zm-3.02 33.762-.394.611c-.85 1.313-1.786 2.626-1.7 4.689.084 2.063-1.786 3.563-2.212 3.563-.425 0-.509-2.344-1.274-3.563-.767-1.22-.34-3.845-.086-4.97l.12-.53c.672-.798 2.439-1.434 3.927-1.41 1.487.023 2.217.747 1.62 1.61zm-6.126-3.325c.075.08.213.28.145.28-.066 0-.133-.035-.15-.078-.016-.042-.07-.283.005-.202zm25.778-56.565s.251.03.955-.36l.314-.171c.018.084.051.186.104.305.222.495.403 1.22.403 1.612 0 .39-.343.914-.762 1.163-.42.25-1.052.577-1.406.727-.355.152-.645 1.308-.645 2.57l.468 1.68c.47 1.68-2.695 0-3.435-1.034-.738-1.034.271-1.293.857-2.198s-.117-1.035-.703-2.326l-.586-1.293c.709-.569 2.705-.873 4.436-.675zm-30.26 68.023-.267-.642c-.556-1.327-1.945-6.637-1.945-8.373 0-1.737-.37-6.777-.649-7.32-.14-.277-.2-.372-.2-.372-.987-1.581-1.024-2.89-.081-2.908.943-.019 2.284.502 2.978 1.157.695.654 1.245 2.76 1.223 4.679 0 0-.064 5.38-.426 5.975-.398.657.143 2.908.653 6.143l.145.91c.102 1.036-.54 1.375-1.43.75zm-.637 55.116s-.68.143-1.244-.198l-.564-.337c-.027-.994 1.068-1.427 2.433-.96 1.367.465 1.086 1.137-.625 1.495zm-5.279-51.269c-.163.134-.3.24-.303.235-.004-.003.1-.094.24-.191l.137-.102zm-4.264-5.82s-.679-.919-.863-1.055c-.203-.15-2.71-2.167-3.32-3.363-.61-1.194-.764-1.584-.764-1.584-.698-1.759-1.421-3.462-1.609-3.786-.188-.323.408-.61 1.325-.635.918-.027 1.58-.23 1.474-.452-.107-.22-.408-.624-.465-.657-.055-.034-.072-.055-.038-.046.035.01.505.325.951.592.445.266 1.484-.008 2.305-.61.823-.602 1.615-.628 1.762-.059.145.57.654 2.547 1.13 4.394 0 0 .433 1.679.71 5.355l.097 1.262c-.384 1.842-1.597 2.131-2.695.644zm-3.099 4.399c-.407.748-.88-1.269-3.183-2.316-2.305-1.047-4.676-1.121-6.437-1.72-.849-.286-3.665-2.294-3.665-2.294-1.462-1.043-2.746-3.17-2.854-4.727s-.414-2.999-.414-2.999l2.63 1.9 1.322.649c2.439 1.195 5.691 2.093 6.91 3.362 1.22 1.271 2.236 3.288 3.93 4.109 1.694.822 2.168 3.288 1.761 4.036zm-7.317 2.316c-.338.598-3.523 1.57-5.962.972-1.299-.318-1.554-.368-1.554-.368-1.714-.335-2.78-.912-2.369-1.285l.044-.283c.133-.845.41-2.495.41-2.495.317-1.887 1.792-2.612 3.277-1.61 0 0 2.998 2.018 4.055 2.529 1.083.522 2.438 1.943 2.1 2.54zm-4.39-18.768h.527c1.354.64 3.143 1.29 3.976 1.448.832.156 2.337 1.193 3.343 2.301l-.068 1.569c-.068 1.57-7.859-3.512-10.23-4.034a59.847 59.847 0 0 1 -1.73-.41c.336.08 3.654-.874 4.182-.874zm-.417-57.384.235.141c1.505-.611 3.078-.68 3.496-.153l.185.012c.187.012.158.663.158.663-.087 1.916.821 4.625 2.02 6.018 0 0 .934 1.086 1.287 1.604.355.517-.12 1.681 0 3.231.12 1.552.12 2.587 1.058 4.266l.079.143c.08.169.07.435-.023.592l-.056.041-.074.055c-.558.076-1.173-.758-1.37-1.853l-.49-.463-.614-.582c-.615.779-1.445.913-1.845.296l-.13-.167c-.4-.518.4-4.266 0-4.914-.4-.645-3.564-4.005-3.916-4.781-.351-.776-.235-4.29 0-4.149zm4.747 0c.088-1.5.352-1.118.68-1.41.327-.29.11-1.358.374-1.816.265-.458.529-1.383 0-1.964l-.526-.583c-.29-.052-.37-.359-.176-.678.193-.32.629-.583.967-.583s.853.306 1.143.68l-.037.468-.037.468c.427.908.935 1.054 1.128.325l.176-.389c.175-.388.792-.194 1.2-.388.41-.193.032 1.358-.496 2.103-.529.743 0 1 .174 1.827.177.827.44 2.565.265 3.05-.177.486-.88.388-2.638.801-1.757.414 0 1.333 0 1.395v.064c-.46.784-1.25.945-1.757.359l-.44-1.818c-.44-1.816-.088-.413 0-1.91zm-29.712 15.525-.937-.777c-.939-.774 0-1.422 0-2.326v-.906c.966-.07 1.89.717 2.05 1.75.162 1.032.293 2.138.293 2.454 0 .32-.633.23-1.406-.195zm-6.682 8.143c-1.757-.388-.468 1.81-.468 3.232 0 1.421-1.524.258-1.893 0-.368-.26-2.092-1.422-2.327-1.81-.234-.388.82-1.552 1.29-2.328.469-.775.938-.904 1.288-1.55l.353-.647c.967.356 1.757-.08 1.757-.968 0-.89.37-1.297.82-.906.453.392 1.723 1.926 2.826 3.412 0 0 .105.143.105.683 0 .541-1.993 1.27-3.75.882zm-1.634 53.642-.293.087.189.473-.423-.192c-.527-.238-.527.195-.704.195-.176 0-1.406.257-1.816.065-.411-.195.059-.518 0-.713s-.587-.58-.996-.597c-.412-.018-1.114-.695-1.583-1.535-.47-.84 0-.388.352-.912.351-.523 1.172.2 1.816.266.645.064 2.814 2.327 2.931 2.18.116-.146-.646-.758-.82-1.339-.177-.583.643-.97 1.112-1.1.47-.13 1.524 1.68 1.524 2.005 0 .322-.996 1.034-1.29 1.117zm-10.665-21.208c-1.164 1.427-2.55 3.467-3.082 4.533l-.484-1.938-.485-1.939c0-.854-.238-1.382-.527-1.175l-.352-.964-.352-.964c-.097-.267-.59-.79-1.1-1.163-.506-.373-.922-1.16-.922-1.745 0-.587.08-.544.176.096l.704.97c.703.97 2.549.873 3.253.873.702 0 3.252 2.326 3.339 2.714.089.388-.168.702-.168.702zm-2.315 24.405c-.089.146-.529.291-.836.389-.307.097-.22.58-.22 1.016 0 .437-.351.875-.655 1.019-.304.146-.092-.048-.4-.194-.307-.146-.307-.34-.439-.582-.132-.243.132-.727.176-1.26s.659-.922.879-1.405l.22-.485c.241.266.528.376.637.241.109-.133.376-.133.593 0l.045.027c.043.027.087 1.089 0 1.234zm-3.21-.63c-.218.194-1.186.243-1.483.523s-.142 1.173-.011 1.319c.131.144-1.01-.29-1.319-.777-.307-.483.132-.53.264-.774l.132-.242c.507-.48 1-1.026 1.096-1.212.094-.186-.102-.625-.436-.97l-.176-.193-.177-.195c.822-.24 1.93.087 2.462.728l.22.29c.22.291-.352 1.31-.572 1.503zm2.43-46.799c-.143.11-.334.24-.538.379l.539-.379zm149.517 33.227-.44-.022c-.439-.02-.79 1.282-1.055 1.573l-.263.29c-.87.16-1.386-1.236-1.143-3.102l.175-.704c.177-.704 1.847.704 2.198.8.353.097 1.494-.096 1.583-.484l.088-.387c-.05-.415.367-.755.923-.755s1.041-.06 1.077-.133l.021-.082c.177-.678 0-.776-.087-1.455-.089-.679-1.582-1.164-2.374-1.454l-.344-.126c-.583.397-1.467.416-1.964.045-.497-.37-.905-.673-1.315-1.515 1.124-.627.812-.658.43-.698-.381-.038-.724-.26-.763-.492v-.219-.022c.002-.024.171-.334.38-.687l.5-.939c.878-1.648 1.933-.194 2.637-.292.702-.096 1.406-.29 2.724-.484s.703-.872.616-1.647c-.087-.777.352-3.297 0-4.196l-.351-.9c.192-.397-.301-2.118-1.098-3.825 0 0-.045-.097-.309-.387l-.263-.291c-.242-.373-1.744-1.31-3.338-2.082 0 0-.706-.342-.97-.633-.264-.29-.791-.582-1.318-.678l-.2-.037c-.243-.268-.473-.551-.511-.629-.039-.078-.36-.679-.544-1.133l.024-.334.053-.757c.648-.704 1.045-1.378.882-1.498-.162-.122-1.02-.59-1.902-1.042l-.44-.58c-.44-.584-.527-1.261-.44-1.65.089-.387 1.67-.968 2.286-1.55.616-.583-.35-1.552-.704-2.037l-.08-.111c-.282-.087-.803.13-1.16.483l-.078.113-.263.388c-.677.867-2.497 2.089-4.044 2.715l-.616.193c-.614.195-.175 2.716-.175 3.2s0 2.133-.088 2.133-1.054 1.649-1.397 2.036c-.34.387-.977.678-1.944.387l-.966-.29c.29-.8 1.1-1.739 1.801-2.085s.88-2.14.396-3.983c0 0-.264-1.01-.088-1.3.176-.291 2.286-1.26 2.461-1.551.177-.292 1.144-1.746.792-2.521-.352-.776 0 0-.565-.485s-1.81-1.358-2.248-2.036c-.44-.679 2.375-1.778 2.248-1.795-.608-.085-1.24-.225-1.458-.629-.416-.774.177-.581 0-1.357-.175-.775-1.23-1.841-1.67-1.841s-1.933.969-3.34 1.162c-1.405.195-1.23-.582-1.494-.969-.263-.387.44-1.066.44-1.454s-1.76-2.424-1.495-3.297c.264-.873.44-1.356.44-1.648 0-.29-1.495-1.647-1.935-1.744-.44-.098-2.549.58-3.076.58h-.527c-.146-.479-1.68-1.04-3.412-1.247 0 0-.105-.013-.126-.4-.019-.389-.77-.389-.858-1.26-.088-.873.351-1.843.703-2.424.353-.582 0-.97 0-1.358 0-.387-.087-1.648-.615-1.94-.528-.29-2.725.389-3.165 0-.44-.387-.44-.775-.527-1.065-.088-.29-.79-.873-.968-1.702-.175-.83-.79-.14-1.143-.043l-.351.097c-.725-.053-1.99-.403-2.812-.776l-.264-.097c-.263-.096-.528-.484-.615-1.187-.088-.702-.265-.849-1.583-1.43l-1.318-.581c.145.745-.034 1.225-.396 1.066-.362-.16-.738-.51-.835-.775l-.265-.291-.263-.292c-.58-.267-1.193-.048-1.363.485s-1.723 1.134-3.454 1.335c0 0-.193.022-.633.162l-.439.14c-.193-1.007-.984-1.83-1.759-1.83h-.351c-.352 0-.615.968-.615 1.69v.722c-1.257-.396-2.424-.993-2.593-1.325-.17-.332-.527-.712-.792-.846-.266-.134-.917-.066-1.447.15-.529.215-1.208.318-1.51.23-.3-.09-1.304-.354-1.648-.448-.344-.097-1.208.111-1.922.46l1.232.484c1.23.486 1.757.194 2.11.486.35.29 1.67 1.744 1.933 1.744.264 0 1.143-1.357 2.286-.969 1.143.387 2.637.29 2.813.969.176.68-.35 3.103-.704 3.2-.35.097-3.496 15.654-3.496 15.654-1.422-1.107-.263-17.535-.775-17.109l-.546.097c-.544.097-3.621-1.26-3.71-1.648l-.087-.387c-.242-.907-1.111-1.78-1.934-1.94l.176-.29.075-.126c0-.439-.438-.798-.972-.798-.535 0-1.33.239-1.764.532-.435.293-1.128 1.185-1.218 1.219-.089.033-1.482.155-2.477.037l-.173-.098c-.263-.15-1.933-1.012-2.724-1.69-.792-.68-2.461-1.844-2.901-3.2-.44-1.358-.176-.68-.44-1.486l-.264-.808c-.628.195-2.369.311-3.867.258l-2.054-.776-2.053-.775c.808-.214 1.013-.391.459-.391-.557 0-1.309.262-1.671.583-.363.32-1.332.8-2.153 1.068l-.264-.194c-.264-.194-.088-.873-.44-1.261-.351-.388-.791-.096-1.143 0l-.35.098c-.097.586-1.206 1.109-2.463 1.163l-.878-.098-.88-.097c-.049-.267-.68-.746-1.406-1.067h-.704c-.87.427-2.136 1.256-2.813 1.843l-.35.453-.353.452c-1.402-.25-2.865-.14-3.252.242s-.944 1.445-1.312 1.546c-.365.103-1.154.405-1.16.407-.408.165-2.1.098-2.105 1.36l-1.387.65-.454.9-.109.218c-.194.19-.516.405-.716.478-.199.072-.437.153-.377.189s-.064.133-.277.216c-.212.084-.805.26-.804.257.16-.181.971-.807.971-1.077v-.267c0-.445-1.06-.887-2.355-.986l-.202.18-.203.179c-1.25.787-2.346 1.634-2.436 1.88a3.26 3.26 0 0 0 -.126.468l-.036-.021-.311.382c.171-.21-.073-.583-.542-.83-.469-.245-.998-.266-1.178-.043a4.542 4.542 0 0 1 -.77.716c-.246.172-1.324.192-2.395.045v.536c.005.017.01.034.017.049-1.764-1.024-2.456-.855-2.456-.855s-1.29.507-1.29.877c0 .371-.116 2.827.351 3.343.47.518.846 1.22.367 1.455-.19.092-.509.447-.795.886a2.092 2.092 0 0 1 -.66.113v.4c0 .273.026.57.07.865-.032.245-.006.46.115.616-.028-.118-1.96-1.087-2.02-.379l-.058.71c.032.646-.197 1.21-.507 1.255-.312.045-.661.092-.78.102h-.104a6.085 6.085 0 0 1 -.138.046l-2.35.31-.282.873-.057.173-.217.397.005-.006.51-.763c.572.05.989.79.925 1.643l.117.322.117.321c-.861.215-1.565.654-1.565.973s-.325.285-.723-.076-.735-.63-.75-.598l-.053.13-.947.457-.234.776c-.234.775-1.055 2.132-.938 2.586l.117.451c-.224.747-1.003 1.358-1.728 1.358-.724 0-1.75.659-2.28 1.466l-.445.473c-.446.472-.15.417-.446.472-.295.055-1.928-.035-1.899.496l.028.474a15.67 15.67 0 0 0 -.37.71c-.004.022-.3.412-.654.821l-.293.258c-.292.258-.47.195-.41.517.058.324.153.712-.011.904l-.164.195c-.452.39-1.349.681-1.994.645l-.175.066c-.176.065-1.231.065-1.407.645-.176.583-.468 1.424-.468 1.747 0 .322.445 1.04.377 1.48-.07.439-.964 1.04-1.257 1.362a1.575 1.575 0 0 1 -.22.19l-2.247-1.3h-1.173s-.82.393-.82.65c0 .255-.351.656 0 .65.353-.008 2.042.187 2.042.187l.954.684c-.24.18-.437.35-.528.491-.293.452-.704.646-.762 1.164-.058.516-.469.904-.293 1.745l.177.84c.08.499-.23 1.11-.691 1.358a9.9 9.9 0 0 0 -1.588 1.131c-.415.375-.863.709-.996.744-.134.034-.797.412-1.474.84v.58c0 .582-1.583 2.522-1.406 3.49.175.97.5 1.303.5 1.303 1.27 1.31 2.587 2.768 2.922 3.238.337.472 1.16 2.094.897 2.39-.264.293-.77.68-1.124.86l.644.953.643.952c.212.425.154.928-.129 1.115-.283.186-.982.338-1.554.338-.573 0-1.556-.391-2.184-.871l.088.871.088.873c-.052.534-.922.751-1.934.484l-.263-.193-.265-.193c-.919-.427-2.263-.776-2.988-.776-.726 0-1.418.37-1.539.824s-.537 1.434-.923 2.18h-.44c-.44 0-1.054-1.065-.966 0l.087 1.067c.484.801.864 1.531.846 1.627-.018.094-.257.584-.257.584l-1.73.503-.266.874c-.263.873-.615 1.745-.615 2.326v.581c.243.374.123.986-.263 1.359l.263.68c.263.677-.558.385-.059 1.258.5.873.55 1.536 1.315 2.036s1.03.414.414 1.614c-.615 1.198-.565 1.489-.414 2.07l.15.582c.823.64 1.693 1.164 1.935 1.164l.615.68c.616.677.902 1.791 2.11 1.549l.284-.057c.258.037.41.516.336 1.065l.171.252.263.389c1.016-.214 1.874-.513 1.908-.666s.603-.394.672-.982l-.06-.388c-.058-.388-.997-1.034.058-1.034 1.056 0 .646-.194 1.056 0 .411.193.47.193.527.711.059.517.218.808.41 1.164v.193c0 .194-.82.582-.937.387l-.117-.193c-.097-.179-.492-.207-.88-.064l.206.192.18.17c-.015.27.903 1.063 2.038 1.763l.654-.091c.702-.096 1.758-1.066 2.109-.968.352.096.567.189.567.189 1.623.697 3.246.589 3.61-.238.362-.827 1.37-1.696 2.24-1.933l.264-.415.265-.414c.676.226 1.467-.072 1.758-.666.29-.594.923-1.604 1.407-2.244l.35.388.352.387c1.21 1.068 2.514 2.357 2.901 2.867l.352-.318c.351-.318 2.462-.9 2.725-1.094l.096-.07c.411-.085.77-.375.794-.642.023-.24.175-.611.346-.874.285.712.49 1.23.49 1.231l.81-.07.102.038c.263.096 1.758-.935 1.581-1.535-.175-.599 0-1.63 0-2.054 0-.421 1.319-1.162 1.583-1.065.263.097 2.637 1.745 2.55 2.133-.089.387-1.056 1.648-.968 1.939.088.29.445 1.55.97 1.649.525.096 1.491-.293 1.844-.098.35.194.175.774 1.493 1.405 1.318.63 2.11 1.795 2.11.436 0-1.356.263-1.399.703-1.329s-.878-.028.792.893.527.436 1.67.921c1.142.485 1.925.289 1.925.289 1.697-.425 3.68-.991 4.405-1.258l.438.048c.44.049 2.55.63 2.461 0l-.055-.4c-.522-1.62.45-2.651 2.161-2.299 0 0 .013.004.71.343.957.463 1.568 1.541 2.793 1.878.946.26 2.04.98 3.712.29 2.995-1.239 4.335 1.718 8.603 2.016 2.958.206 5.718 2.078 5.718 2.078 1.48 1.006 2.965 3.37 3.294 5.255 0 0 .114.652.114 1.254 0 1.862 1.412 7.275 0 13.386-2.15 9.32-4.525 10.337-9.29 13.726-4.762 3.389-5.12 2.597-6.913 4.349-.62.605-1.075 2.599-4.61 2.768-.66.033-1.538.395-2.247.212-.57-.146-.971-.857-1.492-.776l-.78.119c-.388.446-1.974 1.526-3.523 2.401 0 0-.714.404-.831.5-.118.098-2.96-.322-4.132-.387-1.123-.06-4.558 1.39-4.714 1.454.178-.071 3.869-.936 4.89-.87 1.026.064 1.817 1.292 3.18 1.162 1.362-.13 1.978-.808 2.886-1.293l.908-.485c.484.693 1.063 1.792 1.286 2.44l-1.709.517c-2.243.68-6.111.775-6.727 1.31-.615.532-.132 1.114-2.154 2.52-2.02 1.406-4.087.92-4.438 1.163-.352.243-3.077 1.514-3.956 2.236-.879.72-1.612.946-1.612.946-1.676.516-2.335.938-1.465.938l1.142-.436c1.143-.437 1.847-.57 3.429-1.448l1.357-.754 1.747-.625.068-.005c.035-.004.495.026.94.07l.166.596c.234.841-.001 1.23-.587 1.552-.585.322-1.7 1.06-1.758 1.597s-.35 2.024-.644 2.25c-.294.224-.486.337-.486.337a13.5 13.5 0 0 1 -.998.534h.195c1.23 0 2.227-.71 2.344-1.358.118-.646.469-2.23.995-2.31.528-.08 2.228-1.438 2.228-2.213v-.776l1.599-.546 1.37-.451.255-.474c.57-1.066.57-2.083 2.9-2.423.44-.065.956-.144 1.508-.24l.097-.019c.108-.02.32.023.467.094l.153.262c.368.63.378 1.454 0 1.746-.378.29-1.918 1.065-2.18 1.646-.264.583-.308 2.426-.264 3.152.043.727-.352 1.55-.572 1.794-.22.242-1.142.694-1.846 1.244l-.703.548c-.618.96-.618 1.167 0 .461l1.01-.448c1.012-.448 2.155-.561 2.389-1.242.234-.676.85-1 .878-1.968.03-.97-.263-2.522.352-3.136.616-.615 2.49-1.585 2.49-2.293v-.657c.976-1.16 1.8-2.12 1.831-2.13.034-.008.116-.036.117-.036 0-.002.043-.01.094-.02.05-.01.665-.287 1.386-.588l.177-.303.572-.969c.82-.96 1.503-1.631 1.516-1.494.015.14-.024.99-.083 1.891l-1.268 1.454-.212.244c-.197.556-.246.998-.112.978.138-.02 1.196-.994 1.839-1.104l.067-.442c.128-.845.457-1.179.665-1.73.044-.112 1.844-1.262 2.254-1.489.41-.226 1.332-.058 2.1-.962l.473-.555c.76-1.118 1.497-2.104 1.637-2.189l.143-.08c1.538-.847 2.127-.982 2.127-.982 1.703-.393 2.682-.049 2.173.76-.51.812-2.3 3.602-3.054 4.321l-.196.45c-.358.818-1.05 1.664-1.356 1.806l-.308.14c-1.015.406-1.21.621-.436.481l.667.056c.666.056 1.382-.592 1.613-1.1.23-.507 1.08-.066 1.08.756l.007.247c-.002.23-.511 1.251-1.13 2.267l-.803.417c-1.228.634-2.496.634-4.072.76-1.574.128-3.187 1.102-3.727 1.525-.208.163-.779.833-1.38 1.144-.95.49-2.012.635-2.153.635-.23 0 1.345.468 2.92-.466l.15-.088a1.54 1.54 0 0 1 .643-.166l.15.254c.352.597.615 1.181-.264 2.052-.88.873-2.682 1.21-2.857 2.908-.175 1.697-.351 2.57-1.011 2.91-.659.34-2.715.435-3.533.775s-2.224 1.369-2.224 1.369c-1.45 1.06-2.124 2.013-1.496 2.121l1.1-.774c1.099-.776 2.197-2.087 3.033-2.28.835-.193 3.735-.436 4.088-1.115.35-.678.79-3.247 1.274-3.49.483-.243 3.208-1.938 3.428-3.635l.22-1.698c.395-.344 1.704-.867 2.907-1.164 1.204-.297 1.966.34 1.419.695-.548.356-.725.65-.393.65.331-.002 2.306-.937 2.144-.626l.224.535c.46 1.106 1.04.882 1.083 2.293l.043 1.412c-.695 1.055-.58 1.285.256.51l.154-1.301c.154-1.3 0-1.873-.101-2.914l-.104-1.04 1.65-2.83.211-1.506c.117-.827 2.474-2.786 3.09-3.053l.47.504c.528.566.44 1.294.308 2.31l-.13 1.017c.99 1.12 1.168 1.077.394-.097l.308-.968c.308-.968 1.018-1.843.835-2.763l-.076-.387c.11-.355.986-.901 1.947-1.21.962-.308 1.819.505 1.902 1.81l-.152.676-.095.415 1.962.896.37.124c.205.067.977.386 1.34.627.362.24 1.11 3.105 1.395 4.999 0 0 .066.436-3.333.178-3.4-.26-3.516-1.359-5.392-1.359-1.875 0-2.87 1.617-3.223 2.392-.352.775-.118 2.91-1.817 3.88l-1.7.97c-.257.43.093.43.78 0l.665-.262c.667-.258 2.072-1.097 2.716-3.102.646-2.004 2.143-2.713 3.621-2.067l1.478.646c1.49.39 1.375 1.263-.255 1.94 0 0-.184.076-1.234.829-.122.086-2.024 1.43-2.818 2.243-.821.838-1.23 2-1.904 2.905-.675.906-1.027 1.003-2.374 1.583-1.348.581-3.019 1.713-3.282 2.069l-.264.354c-1.111.411-1.164.745-.116.745l.469-.485c.468-.486 1.464-1.357 2.43-1.712.968-.356 2.756-.873 3.194-1.423l.44-.548.737-.597-.396.871-.135.338c-.646 1.616.41 2.715.527 3.621.085.655.262 2.194-1.12 3.732-.253.28-.558.562-.924.836l-.395.296c-.56.63-.664.784-.23.342l.901-.456c.363-.182.745-.4 1.1-.658.424-.306.566-.744.844-1.16.193-.289.582-.523.644-.864.411-2.261.118-2.455.118-3.36 0-.41-.223-.85-.205-1.44.021-.715.314-1.6.732-2.31.289-.49.99-.733 1.436-1.293l.27-.338c.273-.404.596-.748.719-.768l.212.041c.704.127 1.203.355 1.23.936.03.582-.089 1.938-.118 2.263-.029.323-.35 3.262.09 3.78.44.517 1.026.55.908 1.326l-.117.774c-.15.676-.277 1.606-.282 2.07-.006.46.342.608.253-.421l.161-.678c.16-.679.806-1.907.69-2.329-.12-.42-1.102-1.163-1.093-2.002.007-.84.886-3.912.857-5.138l-.03-1.228.107-1.18c0-.003 1.376-.408 3.057-.906 0 0 1.42-.42 2.141-1.306.996-1.23 1.347-4.138 1.407-5.43l.057-1.292c.734-.763 1.496-1.313 1.695-1.224l.087.096c.512.564.615 1.638.537 2.06-.077.425-.588 1.216-.41 1.81.18.591 1.178 1.778 1.204 1.862l.026.086c-1.071.791-1.429 1.439-.795 1.439l.641-.537.067-.055a9.12 9.12 0 0 1 .572-.452l.104.198c.102.198.18.425 0 .846-.179.425-.256 1.102 0 1.47.255.368 1 .848 1.075.99l.076.137c-.28 1.25-.135 1.487.32.528l-.114-.64c-.128-.706-.975-.902-1.049-1.298-.078-.395.511-1.735.357-2.095-.154-.362-.186-.925-.537-1.323-.307-.366-1.305-1.297-.922-2.03.384-.736 1.024-2.15.743-2.799l-.283-.647c1.013-.206 2.382-.177 3.044.06l.645.304 1.874.886c1.27 1.163 2.359 2.326 2.422 2.588l-.047.2c-.204.903-.869 1.75-1.229 2.426-.357.68-.408 2.6-.46 2.939-.052.338-1.843 1.241-2.305 1.862l-.413.56 1.503-.894c-.001 0 .63-.179 1.403-.401l.22 1.065c.22 1.066 1.011 1.308 0 2.81-1.012 1.502-2.195 3.734-1.624 4.605.569.874 1.404 1.634 1.404 2.538s-1.138 3.655-1.164 3.79l-.187.941c.21 1.868.39 2.724.397 1.904.006-.82.265-2.732.351-2.77l.178.11c.528.324.673.55.616 1.001-.058.454-.264.648-.058 1.357.203.71.996 1.131 1.23 1.794l.234.664c.162.568.438.394.616-.389l-.63-.614c-.63-.615-.958-1.162-1.015-1.584-.055-.421.033-1.487-.26-2.003l-.293-.516c-.237-.623.387-2.112 1.385-3.313l-.678-.92c-.677-.924-1.69-1.698-1.337-2.764.352-1.068 2.198-3.247 2.198-4.654v-1.407l-.824-3.146.382-.97c.21-.535.558-.49.772.1l.358.79.094.21c.285.202.518.37.52.37l.88.968.176.837c.176.841 1.76 2.523 2.344 2.975.35.27.823 1.592.997 2.778.116.798-.071 1.555.117 1.816.26.362 1.149.62 2.11 1.093.77.38 1.577.991 2.231 1.165l.617.163c.465.452 1.011 1.021 1.212 1.266l-.075.638c-.077.64-.263 1.406-.22 1.988.043.581.571 1.26.615 2.083l.045.827c-.75.852-.83 1.18-.177.725l.704-1.018c.703-1.018-.132-1.261-.527-2.084-.397-.825.131-1.356.439-1.502l.147-.07c.416.267 1.066 1.21 1.446 2.097.378.885 1.711.438 1.022-.28l-.973-1.175a14.016 14.016 0 0 1 -.822-1.073l-.125-.188c-.126-.214-.262-.445-.3-.512-.039-.065-.468-.84-.954-1.72l-.73-.586c-.2-.162-.847-.009-1.055-.162-1.231-.904-2.813-1.29-3.282-1.745l-.323-.31c-.25-1.319-.305-2.457-.123-2.533h.27c1.64 0 2.813 0 3.165.58.352.582.47 1.962 1.64 2.371 1.173.41 2.638.021 3.752 1.184 1.113 1.165 1.82 2.042 1.82 2.042 1.158 1.432 1.358 1.266.446-.367 0 0-.685-1.222-2.443-2.578-1.758-1.358-3.574-.59-3.867-1.395-.293-.804-.058-2.321-1.232-2.597-1.17-.276-1.502-.38-1.502-.38-1.673-.526-3.042-.96-3.042-.96l-1.163-.749-.386-.547c-.528-.748-.588-1.194-.47-1.813l.043-.226c.274-.025.805.029 1.181.123l.389.103.973.261c.912.83.998.461.193-.819l-.727-.198c-.82-.227-2.458-.509-2.612-.622-.064-.047-.545-1.1-.602-1.752-.08-.925.274-1.565.244-1.863l-.019-.185c-.138-.405-.035-.815.23-.915l.209.265c.572.727 1.319 1.261 2.11 1.697.79.435 1.627.92 2.243 2.181.614 1.261.702 2.52 2.24 4.218l1.539 1.696c1.16.267 1.239-.082.176-.775l-1.32-1.402c-1.318-1.401-.571-2.961-1.225-4.61-.655-1.648-.972-1.648-2.818-2.664-1.846-1.02-1.759-1.6-2.11-2.861s-1.318-1.647-2.76-2.327l-.887-.418c-.428-.426-1.387-1.636-2.134-2.689l-.29-.532c-.46-.847 1.214-.73 1.214-.73 1.737.123 4.164.45 5.394.73l1.69 2.202.214.279c.215.25.502.788.638 1.196l.186.517c.576 1.61 1.038 2.161 1.573 2.544.538.379 1.23 1.1 1.346 1.525l.115.422c.211 1.257.618 2.63.903 3.05s.524.37.25-.21l-.155-.976c-.153-.973-.075-2.118-.576-3.285l-.5-1.163c.25-.403.99-.527 1.647-.27l.556.157.618.174c1 .066 2.107 1.6 2.46 3.411l.117.966c.117.97 3.575 4.138 4.337 4.459.761.325 1.112.583 1.464 1.837.352 1.255.763 2.754 1.642 3.399.444.326 1.485.819 2.551 1.291.447.201.7 1.36 1.023 2.133.323.776 1.319 1.132 1.583 1.423.263.291-.06 1.616.116 2.425.177.809.938.936.646.676-.293-.256-.499-1.292-.381-1.808.116-.517.233-1.228.246-1.486.011-.26-1.214-.711-1.653-1.261-.44-.548-.03-.58.205-.872l.234-.29c.667.301 1.797 1.013 2.51 1.584.715.567.957.452.538-.261l-1.992-1.486c-1.992-1.487-4.221-2.068-5.216-2.778-.996-.713-.879-2.005-.879-3.438s-1.817-1.797-2.637-2.056c-.821-.26-3.165-2.586-3.34-3.88-.145-1.058.898-1.431 1.28-1.53.262-.062.531-.123.739-.062l1.22.36c.68.896.437.333-.543-1.252 0 0-.025-.04-.843-.38-.82-.338-1.28-1.694-1.691-2.534l-.242-.5a184.856 184.856 0 0 1 -2.04-.446c-.005-.006.46.032 1.037.096l.374.051c.82.114 1.946.735 3.125.793l1.178.057c1.183-.219.733-.55-1-.733 0 0-.537-.059-.794-.286-.255-.225-.767-.958-3.38-1.072l-.62-.027c-.764-.13-1.446-.263-1.515-.29l-.066-.024c-1.538-.507-4.15-2.2-4.61-2.71-.46-.508-.983-1.352-.983-1.352-.98-1.587-.642-2.654.753-2.376 1.394.28 3.839 1.142 5.432 1.915 0 0 .944.457 2.48.797l.482.106c1.172-.339 2.336-.523 2.586-.413l.082.222c.269.72 0 1.142.423 1.525.422.382 1.727.595 1.998.804.269.212 1.42 1.145 1.728 1.61.307.467-.231-.93-1.229-1.61-1-.676-1.921-.973-2.152-1.314l-.07-.1c-.003-.19.307-.464.69-.61l.565.218c1.011.388 1.802.485 2.374 1.841l.231.55c.87.432 1.407 1.908 1.192 3.282l.291.922c.307.974 1.759 2.857 2.286 3.875.526 1.018-.395 1.357-.265 1.89.133.533.748 1.89 2.022 3.055 1.276 1.163 2.857 2.665 4.352 3.103l.91.265c.61.66.702.64.21-.05l-.109-.12c-.177-.193-2.9-2.035-3.472-2.568s-2.199-1.747-2.77-2.618c-.572-.873.044-.726.483-1.454.44-.727.264-.63-.658-2.279-.923-1.648-1.714-2.472-1.802-3.603l-.09-1.13c1.403-.437 3.702.134 5.108 1.263 0 0 .037.029.431 1.24.397 1.213 2.928 2.262 2.928 2.262 1.63.675 1.68.543.116-.295 0 0-.142-.076-1.065-1.143l-.293-.336c-.284-.528-.646-1.54-.805-2.25h.703c.702 0 1.874-.126 2.695.39.82.516 1.993 1.615 3.047 1.55 1.055-.064 1.817-.257 2.99.452 1.172.713 2.562 1.311 2.562 1.311 1.62.703 1.651.62.069-.178 0 0-1.987-1.003-2.75-1.908-.762-.905-1.992-.322-3.163-.905-1.173-.581-1.993-1.842-3.106-2.053-1.115-.21-2.052.244-3.224-.468-1.012-.614-2.528-.705-3.92-1.106-.13-.042-.263-.082-.394-.126l-.082-.03-.168-.054-.051-.02c-.028-.008-.778-.281-1.622-.591l-.588-.367-1.082-.672c-.267-.571-.132-1.015.299-.989s.508-.031.17-.127c-.337-.098-1.425-.604-1.45-.617-.027-.015-.163-.091-.23-.132l-.053-.036-.744-.517c-1.03-.466-1.874-.849-1.874-.851l-3.132-.5s-1.917-.308-2.878-.518c-.96-.213-2.574-1.188-3.226-2.077-.652-.888-2.458-2.583-3.188-3.05-.73-.466-1.066-.582-1.066-.582-1.66-.579-3.654-1.527-4.43-2.107l-.918-.998c-.39-.421-1.267-.88-1.634-1.471-1.597-2.577-2.84-6.964-2.554-14.922.268-7.454.308-8.376.308-8.376.084-1.918.283-3.873.44-4.345.16-.472 1.435-1.79 2.836-2.93 0 0 3.968-3.232 6.25-4.81l.722-.5 1.425-.9.704-.042c.388-.023 1.982.28 2.137.449.156.17.453.275.66.232.207-.04 1.61-.236 2.032-.23.422.004 1.367-.36 1.743-.408h.174c.792 0 .703-.228 1.406-.618.704-.386 1.32-.581 2.462-1.452l.85-.65c-.011-.07.841-.15 1.894-.175 1.054-.027 2.43.613 3.058 1.423s1.736 1.922 2.461 2.473c.726.55 2.15.825 3.165.612l.88-.387c.877-.389 1.67-.29 2.109-.512.44-.219.879-1.234 1.993-2.01 1.114-.774 1.083-.193 1.436-.193.35 0 .703.387 2.813 1.489 2.108 1.1 3.34.062 4.57-.81l1.231-.873c.436.926 1.543 1.797 2.462 1.939l.351-.256c.352-.256.528.256 1.406 0 .88-.256.704-1.102 1.056-2.04.35-.94.702-.322.967-.807l.197-.362c1.052-.355 1.689-.672 1.415-.705l-.294-.179c-.536-.324-.352-1.372-.352-2.044 0-.674.177-.965.032-1.196l-.145-.231c-.373.143-1.657.196-2.853.12l-.352-.29c-.208-.171.323-.582.5-1.521.122-.654-.155-1.395-.082-1.833l.175-1.066c.436.587 1.45 1.282 2.253 1.545l-.09.967c-.088.936.2 1.665.594 2.309.369.603.688 1.026.848.996l.527-.096c.87.054 1.88.314 2.241.581.363.266.66.768.66 1.112 0 .345.717 2.162 1.595 2.857l.338-.187c.53-.292.265-.485.792-1.165.528-.679 1.318-.194 2.11-.97l.791-.774c-.048-.906.782-1.562 1.847-1.454l.526-.777.528-.776c-.252-.542.302-1.066 1.23-1.162l.791-.582.792-.58c-.775-.56-1.684-.778-2.022-.482-.34.297-1.209.688-1.934.869z" fill="#183639"/><path d="m129.479 35.602c-.448.874-1.019 2.092-1.267 2.708-.249.617-.94 1.541-1.538 2.055-.597.515-1.329 1.228-1.629 1.588-.298.36-.541.865-.541 1.12 0 .258-.977-.206-2.17-1.027v-.56c0-.56 1.085-.933 2.711-2.802l1.63-1.867c0-.823.325-1.537.723-1.588l.724-.095.181-1.12.18-1.121c.996.616 1.443 1.836.996 2.709zm-1.297 37.018-.242.374c-.796 0-1.527.337-1.628.747-.099.41.037.973.302 1.245l-1.266-.498-1.266-.497c-.265.395-.673.837-.904.981-.233.146-.613.263-.845.263s-.5-.036-.593-.08c-.093-.046-.17-.081-.17-.081l1.667-.897.182-.654.18-.654c.647.36 1.624.486 2.172.28l.541-1.12c.543-1.12.362-.467.633-.561l.19-.065c.708-.369 1.288-.413 1.288-.1v.943zm-7.116-45.798c-.452.84-1.9 1.402-2.35.934l-.453-.467c-.498-.724-.599-1.756-.227-2.294.373-.536 1.892-.126 3.374.91 0 0 .109.076-.344.917zm-2.338 56.831-.486.678c-.696 1.204-2.66 2.647-4.367 3.208 0 0-.914.3-1.236-.08-.46-.541.787-1.354 1.05-1.694a6.584 6.584 0 0 0 1.247-2.844c.262-1.49 1.311-3.365 2.099-4.902.293-.571.963-1.344 1.689-2.088-.182.187-.23 4.827.004 4.687.236-.14.67 2.102 0 3.035zm-9.217-3.284.267-.824c.607-1.321 1.62-2.492 2.25-2.602.631-.111 1.902-.669 2.825-1.241.924-.572 1.781-.988 1.906-.926.123.062.413.266.383.316l-.02.037c-.438.812-2.362 1.896-2.711 2.168-.35.272-1.137 1.897-1.662 3.704-.524 1.807-3.675.724-3.238-.632zm1.064-33.839c.362-.56.771-.796.771-.796 1.566-.897 3.05-1.129 3.299-.512.25.617.252 1.247.009 1.402-.244.154-.692.793-.995 1.421s-.015 2.55.642 4.272c0 0 .073.19-.109.752-.18.559-1.808 1.494-2.649 1.12l-.84-.374c-.07-.513-.372-1.522-.67-2.24l-.905-1.683c-.905-1.68 1.085-2.803 1.447-3.362zm-3.106 32.527-.406.589c-.875 1.264-1.837 2.53-1.75 4.517s-1.837 3.433-2.275 3.433-.524-2.259-1.312-3.433c-.788-1.175-.35-3.704-.088-4.789l.124-.51c.691-.769 2.509-1.382 4.04-1.359 1.53.023 2.281.72 1.667 1.552zm-6.304-3.204c.077.077.22.27.15.27-.069 0-.138-.033-.156-.074-.016-.042-.071-.273.006-.196zm26.523-54.495s.259.028.983-.346c.136-.07.237-.123.323-.166.018.081.052.18.107.294.228.477.415 1.176.415 1.553s-.354.88-.785 1.12a15.06 15.06 0 0 1 -1.446.701c-.365.147-.664 1.26-.664 2.476l.482 1.618c.482 1.62-2.773 0-3.534-.995-.76-.997.278-1.247.88-2.118.604-.872-.12-.997-.722-2.241l-.603-1.246c.729-.548 2.783-.841 4.564-.65zm-31.134 65.534-.276-.618c-.572-1.279-2-6.394-2-8.067s-.381-6.529-.668-7.052c-.145-.267-.206-.359-.206-.359-1.016-1.523-1.053-2.784-.084-2.8.971-.02 2.35.482 3.065 1.113.715.63 1.28 2.66 1.258 4.509 0 0-.066 5.182-.438 5.756-.41.633.147 2.801.672 5.918l.149.876c.105.999-.557 1.325-1.472.724zm-.656 53.1s-.7.137-1.28-.19l-.58-.325c-.028-.958 1.098-1.375 2.503-.926 1.406.448 1.117 1.096-.643 1.44zm-5.431-49.393c-.168.129-.309.23-.313.226a1.674 1.674 0 0 1 .247-.184l.142-.098zm-4.388-5.608s-.698-.885-.888-1.016c-.208-.145-2.788-2.088-3.416-3.24-.627-1.15-.786-1.526-.786-1.526-.718-1.694-1.462-3.335-1.655-3.647-.194-.311.42-.587 1.363-.612.944-.026 1.626-.222 1.517-.435-.11-.213-.42-.602-.478-.634-.057-.032-.075-.052-.04-.043.036.008.52.312.979.57.458.256 1.526-.009 2.37-.588.848-.58 1.663-.605 1.814-.057.149.55.673 2.454 1.163 4.233 0 0 .446 1.618.731 5.16l.099 1.215c-.395 1.775-1.643 2.054-2.773.62zm-3.188 4.239c-.419.72-.906-1.222-3.275-2.232-2.372-1.008-4.812-1.08-6.623-1.657-.874-.275-3.77-2.21-3.77-2.21-1.506-1.004-2.826-3.053-2.938-4.554-.11-1.5-.426-2.889-.426-2.889s1.216.824 2.706 1.83l1.36.625c2.51 1.152 5.856 2.017 7.111 3.24 1.254 1.224 2.3 3.168 4.043 3.958 1.743.793 2.23 3.168 1.812 3.889zm-7.528 2.23c-.349.577-3.626 1.513-6.135.937-1.337-.306-1.599-.354-1.599-.354-1.763-.323-2.861-.879-2.437-1.238l.045-.273c.136-.814.421-2.404.421-2.404.327-1.818 1.845-2.516 3.372-1.551 0 0 3.085 1.945 4.172 2.436 1.115.504 2.509 1.873 2.16 2.448zm-4.517-18.08h.541c1.394.616 3.235 1.243 4.092 1.395.855.15 2.404 1.149 3.439 2.217l-.07 1.51c-.07 1.514-8.086-3.382-10.526-3.885a65.112 65.112 0 0 1 -1.779-.396c.345.078 3.759-.841 4.303-.841zm-.43-55.285.242.136c1.548-.589 3.167-.656 3.597-.148l.19.012c.192.011.163.638.163.638-.09 1.847.845 4.457 2.08 5.799 0 0 .96 1.046 1.323 1.545.365.498-.123 1.62 0 3.113.124 1.495.123 2.492 1.088 4.11l.081.137a.64.64 0 0 1 -.023.57l-.058.04-.076.053c-.574.074-1.207-.73-1.409-1.785l-.505-.447-.632-.56c-.632.75-1.486.88-1.897.286l-.135-.162c-.41-.499.412-4.11 0-4.733-.41-.622-3.666-3.86-4.029-4.607-.361-.747-.242-4.133 0-3.997zm4.884 0c.09-1.444.362-1.078.7-1.358.337-.28.114-1.308.385-1.75.272-.441.544-1.332 0-1.893l-.542-.56c-.298-.051-.38-.346-.18-.654.198-.309.646-.561.994-.561.349 0 .878.294 1.177.654l-.039.45-.038.452c.44.875.963 1.016 1.16.313l.182-.374c.18-.374.815-.187 1.236-.374.421-.186.032 1.308-.512 2.025s0 .964.18 1.76c.182.798.453 2.472.272 2.94-.182.467-.904.373-2.714.77-1.808.4 0 1.285 0 1.345v.062c-.474.755-1.287.91-1.808.345l-.453-1.751c-.453-1.75-.09-.398 0-1.841zm-30.57 14.957-.965-.748c-.965-.747 0-1.37 0-2.242v-.872c.995-.069 1.945.69 2.11 1.685.166.995.301 2.06.301 2.365 0 .307-.65.222-1.446-.188zm-6.875 7.845c-1.808-.373-.482 1.744-.482 3.113 0 1.37-1.568.25-1.948 0-.378-.25-2.152-1.369-2.394-1.744-.24-.373.844-1.494 1.327-2.241.483-.748.965-.872 1.326-1.495l.363-.622c.995.343 1.808-.078 1.808-.933 0-.857.38-1.25.844-.873.465.378 1.772 1.856 2.907 3.287 0 0 .108.138.108.658 0 .522-2.05 1.223-3.859.85zm-1.682 51.68-.301.083c.068.157.132.31.194.456l-.435-.185c-.542-.23-.542.188-.724.188-.181 0-1.447.248-1.869.062-.423-.187.06-.498 0-.686s-.604-.56-1.024-.576c-.424-.017-1.147-.669-1.63-1.478-.482-.81 0-.374.363-.879.361-.504 1.206.193 1.868.256.664.062 2.895 2.242 3.016 2.101.12-.14-.665-.73-.844-1.29-.181-.562.663-.935 1.145-1.061.482-.124 1.568 1.62 1.568 1.932 0 .31-1.026.996-1.327 1.077zm-10.973-20.432c-1.198 1.374-2.624 3.34-3.17 4.367l-.499-1.868-.499-1.867c0-.823-.245-1.332-.542-1.133l-.362-.928-.362-.929c-.1-.257-.608-.76-1.131-1.12-.522-.36-.95-1.117-.95-1.681 0-.566.082-.524.182.092l.723.934c.724.935 2.623.841 3.347.841.723 0 3.346 2.242 3.436 2.615.091.374-.173.677-.173.677zm-2.382 23.511c-.091.14-.544.28-.86.374-.316.093-.226.56-.226.98s-.362.842-.674.981c-.313.14-.095-.047-.411-.187-.317-.14-.317-.327-.452-.56-.137-.235.135-.7.18-1.214s.678-.89.905-1.354l.226-.468c.248.257.543.363.656.233.111-.129.386-.129.61 0l.046.026c.045.026.09 1.049 0 1.189zm-3.302-.607c-.225.186-1.22.234-1.527.504-.305.27-.146 1.13-.01 1.27.134.14-1.04-.28-1.357-.748-.316-.466.135-.512.27-.746l.137-.233c.521-.463 1.029-.988 1.127-1.168.097-.18-.104-.601-.449-.934l-.18-.187-.183-.187c.847-.232 1.987.083 2.534.7l.226.28c.226.281-.362 1.263-.588 1.449zm2.5-45.087c-.148.106-.344.23-.554.364l.555-.364zm151.914 27.773-.453-.022c-.451-.021-.813 1.319-1.085 1.618l-.27.3c-.896.165-1.427-1.273-1.177-3.194l.18-.724c.182-.725 1.9.724 2.261.823.363.1 1.538-.099 1.63-.497l.09-.4c-.05-.426.378-.776.949-.776.572 0 1.072-.062 1.108-.137l.022-.085c.182-.697 0-.798-.09-1.497-.091-.699-1.627-1.198-2.442-1.496l-.354-.13c-.6.408-1.509.428-2.02.046-.512-.381-.932-.693-1.354-1.56 1.156-.645.835-.677.443-.717-.393-.04-.746-.268-.785-.507v-.225-.023c.001-.025.176-.344.39-.707l.515-.967c.904-1.696 1.989-.2 2.713-.3.723-.1 1.447-.299 2.803-.499 1.357-.199.724-.897.634-1.694-.09-.8.362-3.394 0-4.32l-.362-.925c.199-.41-.31-2.18-1.129-3.937 0 0-.047-.1-.318-.399l-.27-.3c-.25-.383-1.795-1.347-3.435-2.142 0 0-.726-.352-.999-.651-.27-.299-.813-.6-1.356-.698l-.206-.038c-.249-.277-.485-.568-.525-.648s-.37-.698-.56-1.166l.025-.344.055-.779c.667-.725 1.075-1.418.908-1.542-.167-.126-1.05-.607-1.958-1.072l-.453-.598c-.451-.6-.542-1.297-.451-1.697.09-.398 1.717-.997 2.351-1.596.633-.6-.361-1.597-.724-2.096l-.084-.115c-.288-.09-.825.135-1.193.498l-.08.116-.27.399c-.697.893-2.57 2.15-4.161 2.794l-.633.2c-.633.2-.18 2.795-.18 3.294 0 .497 0 2.194-.091 2.194-.09 0-1.085 1.697-1.437 2.096-.352.398-1.006.698-2 .398l-.995-.298c.298-.824 1.132-1.79 1.854-2.146.72-.357 2.08-2.516 1.582-4.413 0 0-1.447-.725-1.266-1.025.18-.3 2.352-1.297 2.533-1.597s1.176-1.796.814-2.594 0 0-.581-.5c-.582-.498-1.862-1.397-2.313-2.095-.453-.698 2.443-1.83 2.313-1.847-.625-.087-1.275-.232-1.5-.647-.428-.798.182-.599 0-1.397-.18-.798-1.266-1.895-1.718-1.895-.453 0-1.99.997-3.438 1.196-1.445.2-1.266-.599-1.537-.997-.27-.399.453-1.097.453-1.497s-1.81-2.494-1.537-3.393c.27-.899.451-1.396.451-1.697 0-.299-1.537-1.694-1.99-1.794-.453-.101-2.622.597-3.165.597h-.542c-.15-.493-1.728-1.072-3.51-1.284 0 0-.109-.013-.13-.412-.02-.4-.793-.4-.884-1.297-.09-.898.362-1.896.724-2.495.363-.599 0-.998 0-1.397s-.09-1.696-.633-1.996c-.542-.299-2.804.4-3.256 0-.453-.399-.453-.798-.542-1.097-.09-.299-.814-.898-.996-1.752-.18-.853-.813-.143-1.176-.044l-.362.1c-.745-.055-2.047-.415-2.893-.799l-.272-.1c-.27-.099-.543-.497-.633-1.222-.09-.722-.272-.873-1.628-1.471l-1.356-.599c.149.768-.035 1.262-.408 1.098-.372-.165-.76-.525-.858-.798l-.273-.3-.27-.3c-.598-.274-1.228-.05-1.403.5-.174.548-1.773 1.167-3.554 1.374 0 0-.199.022-.651.167l-.452.143c-.199-1.036-1.013-1.884-1.81-1.884h-.361c-.362 0-.633.998-.633 1.74v.744c-1.294-.408-2.494-1.022-2.668-1.364-.175-.342-.542-.733-.815-.87-.273-.139-.943-.069-1.489.153-.544.222-1.242.328-1.553.236-.309-.091-1.342-.363-1.696-.46-.353-.1-1.243.114-1.977.473l1.267.499c1.267.5 1.808.2 2.17.5.362.299 1.72 1.795 1.99 1.795.272 0 1.176-1.397 2.352-.998 1.176.4 2.714.3 2.895.998.18.699-.362 3.193-.725 3.293-.36.1-.776-.224-.776-.224-1.463-1.139-3.092-1.711-3.619-1.273l-.56.1c-.561.1-3.727-1.298-3.818-1.697l-.09-.398c-.248-.934-1.143-1.831-1.99-1.996l.181-.3.078-.128c-.001-.452-.452-.823-1.001-.823-.55 0-1.368.247-1.815.549-.447.301-1.16 1.22-1.253 1.254-.09.034-1.525.16-2.549.038l-.177-.1c-.27-.154-1.99-1.042-2.804-1.74-.814-.7-2.532-1.898-2.984-3.293-.453-1.398-.181-.7-.453-1.53l-.27-.832c-.647.201-2.438.32-3.98.266l-2.114-.799-2.112-.798c.832-.22 1.043-.402.472-.402-.572 0-1.346.27-1.719.6s-1.37.824-2.215 1.099l-.272-.2c-.271-.199-.09-.898-.452-1.298-.362-.398-.815-.098-1.176 0l-.361.101c-.1.604-1.24 1.142-2.533 1.197l-.904-.1-.905-.099c-.05-.274-.7-.768-1.448-1.099h-.723c-.895.44-2.198 1.294-2.894 1.898l-.362.465-.362.466c-1.442-.256-2.948-.144-3.346.25-.398.393-.972 1.486-1.35 1.59-.376.106-1.187.417-1.193.42h-.005c-.415.17-2.155.1-2.162 1.398l-1.426.671-.467.926-.113.224c-.2.195-.531.416-.736.491s-.45.158-.388.195c.062.038-.066.138-.285.223-.218.086-.828.268-.828.264h.001c.164-.187.999-.83.999-1.108v-.276c0-.457-1.09-.912-2.423-1.014l-.209.185-.208.184c-1.286.81-2.414 1.682-2.506 1.934-.055.152-.1.329-.13.483-.025-.013-.037-.022-.037-.022l-.32.394c.176-.216-.075-.6-.558-.855-.482-.252-1.027-.273-1.212-.044-.183.228-.54.559-.793.737-.253.177-1.362.198-2.463.046v.552c.004.017.01.035.017.05-1.815-1.054-2.527-.88-2.527-.88s-1.327.522-1.327.903c0 .382-.12 2.91.361 3.44.483.534.87 1.256.377 1.499-.194.094-.523.46-.818.91-.179.067-.417.111-.678.117v.413c0 .28.026.586.072.89-.034.251-.007.474.118.634-.03-.122-2.017-1.119-2.078-.39l-.06.73c.032.665-.203 1.246-.522 1.292-.32.046-.68.094-.802.105h-.108a6.259 6.259 0 0 1 -.142.047l-2.418.32-.29.898-.058.178c-.127.23-.227.414-.223.409l.004-.006.526-.786c.588.052 1.017.813.951 1.69l.12.332.121.331c-.886.221-1.61.673-1.61 1.001 0 .329-.335.294-.745-.078-.409-.372-.755-.65-.77-.616-.016.033-.055.134-.055.134l-.974.47-.242.8c-.24.797-1.085 2.194-.965 2.66l.12.466c-.23.768-1.031 1.397-1.777 1.397s-1.802.678-2.346 1.509l-.458.487c-.459.485-.155.43-.459.485-.303.057-1.984-.035-1.953.51l.028.49a16.13 16.13 0 0 0 -.38.73c-.005.023-.309.424-.673.845l-.302.265c-.3.266-.483.2-.422.532.06.334.158.733-.012.931l-.168.2c-.465.402-1.388.702-2.051.665l-.18.068c-.182.066-1.267.066-1.449.664-.18.599-.481 1.464-.481 1.797 0 .332.458 1.07.388 1.523-.072.452-.991 1.071-1.294 1.403-.047.054-.128.12-.226.194l-2.312-1.338h-1.207s-.842.406-.842.67c0 .262-.363.675 0 .668.362-.007 2.1.193 2.1.193l.981.705c-.246.185-.45.36-.542.505-.302.465-.725.665-.785 1.198-.06.531-.482.93-.301 1.795l.182.865c.082.514-.238 1.143-.711 1.398-.473.256-1.207.78-1.633 1.164-.427.386-.888.73-1.025.766-.138.035-.82.424-1.517.864v.597c0 .6-1.628 2.596-1.446 3.593.18.998.514 1.34.514 1.34 1.308 1.349 2.662 2.849 3.007 3.333.347.486 1.194 2.155.923 2.46-.272.301-.793.7-1.157.884l.663.982.661.98c.219.437.159.955-.132 1.148-.291.191-1.011.348-1.6.348s-1.6-.403-2.247-.897l.092.897.09.898c-.054.55-.949.773-1.99.498l-.271-.198-.272-.2c-.946-.439-2.329-.798-3.075-.798-.747 0-1.459.381-1.583.849-.125.466-.552 1.476-.95 2.243h-.452c-.453 0-1.085-1.096-.995 0l.09 1.099c.498.824.889 1.575.87 1.674-.018.096-.264.6-.264.6 0 .002-.801.235-1.78.519l-.273.899c-.271.898-.634 1.796-.634 2.393v.598c.25.385.126 1.015-.271 1.399l.27.699c.272.697-.574.397-.06 1.295.514.899.565 1.581 1.353 2.096.787.515 1.06.426.426 1.661-.632 1.233-.582 1.533-.426 2.131l.155.599c.846.658 1.741 1.197 1.99 1.197l.633.7c.633.697.928 1.844 2.17 1.594l.293-.057c.266.038.422.53.346 1.095l.176.26.27.4c1.046-.22 1.929-.528 1.963-.685.035-.158.621-.406.692-1.01l-.061-.4c-.06-.4-1.027-1.065.06-1.065 1.086 0 .663-.2 1.086 0s.483.2.542.732c.06.532.224.832.422 1.198v.199c0 .2-.843.6-.964.399l-.121-.2c-.1-.184-.506-.213-.905-.066l.212.198.184.174c-.014.28.93 1.096 2.098 1.816l.673-.094c.722-.098 1.808-1.097 2.17-.997s.583.195.583.195c1.67.717 3.34.606 3.714-.245.373-.85 1.41-1.745 2.306-1.989l.27-.427.273-.427c.696.233 1.51-.073 1.81-.684.297-.613.948-1.652 1.446-2.31l.362.399.361.398c1.244 1.1 2.587 2.426 2.985 2.951l.362-.327c.361-.328 2.533-.926 2.804-1.126l.099-.072c.423-.088.791-.386.817-.66.023-.249.18-.63.356-.9.293.732.504 1.266.504 1.267l.833-.073.105.04c.27.098 1.809-.963 1.627-1.58-.18-.617 0-1.677 0-2.114 0-.434 1.356-1.197 1.628-1.096.271.1 2.713 1.795 2.623 2.195-.09.398-1.085 1.696-.995 1.995s.458 1.596.998 1.697c.54.1 1.534-.301 1.897-.1.36.2.18.797 1.537 1.446 1.356.648 2.17 1.847 2.17.449 0-1.396.272-1.44.724-1.368.452.073-.904-.03.814.919 1.718.948.543.449 1.718.948 1.177.499 1.981.297 1.981.297 1.747-.437 3.787-1.02 4.533-1.295l.451.05c.453.05 2.623.648 2.532 0l-.057-.412c-.537-1.667.464-2.728 2.224-2.366 0 0 .013.004.731.353 1.743.845 3.625.922 6.692 2.23 3.068 1.306 4.461 1.77 8.852 2.077 3.044.211 5.883 2.138 5.883 2.138 1.524 1.036 3.05 3.468 3.39 5.41 0 0 .117.67.117 1.289 0 1.917 1.453 7.488 0 13.778-2.212 9.591-4.656 10.64-9.558 14.127-4.9 3.488-5.27 2.674-7.114 4.476-.637.623-1.106 2.675-4.742 2.85-.68.033-1.583.406-2.313.217-.586-.15-1-.882-1.535-.798l-.802.122c-.4.459-2.032 1.57-3.625 2.471 0 0-.735.416-.855.515-.121.101-3.046-.331-4.252-.398-1.155-.062-4.69 1.43-4.85 1.496.183-.073 3.98-.963 5.031-.896 1.056.066 1.87 1.33 3.272 1.197 1.402-.135 2.035-.832 2.97-1.331l.934-.499c.498.713 1.093 1.844 1.323 2.51l-1.758.533c-2.308.7-6.288.798-6.922 1.348-.633.548-.136 1.148-2.216 2.595-2.08 1.446-4.205.946-4.567 1.196s-3.165 1.559-4.07 2.302c-.904.741-1.658.974-1.658.974-1.725.53-2.403.965-1.508.965l1.176-.449c1.176-.45 1.9-.586 3.528-1.49l1.396-.776 1.797-.643c.003 0 .034-.004.07-.006.037-.004.51.027.967.073l.171.613c.241.865 0 1.265-.603 1.597s-1.75 1.091-1.81 1.643c-.059.553-.36 2.084-.662 2.316-.302.23-.5.348-.5.348a13.89 13.89 0 0 1 -1.027.55h.2c1.267 0 2.292-.731 2.412-1.398.121-.665.483-2.295 1.024-2.378.544-.083 2.292-1.48 2.292-2.278v-.799l1.645-.562s.636-.208 1.41-.464l.262-.487c.588-1.098.588-2.145 2.985-2.494a61.43 61.43 0 0 0 1.551-.248l.1-.02c.111-.02.328.024.48.097l.158.27c.379.65.389 1.496 0 1.797-.39.298-1.974 1.097-2.244 1.695-.271.6-.316 2.496-.271 3.243.044.749-.362 1.597-.588 1.847s-1.176.714-1.9 1.28l-.723.565c-.636.988-.636 1.201 0 .474l1.04-.461c1.04-.46 2.216-.578 2.457-1.278.241-.696.875-1.03.904-2.026.03-.998-.27-2.596.362-3.228.634-.633 2.563-1.63 2.563-2.36v-.676c1.003-1.194 1.85-2.181 1.883-2.191l.12-.038c0-.002.045-.01.096-.021.053-.01.685-.295 1.427-.605l.182-.312.588-.997c.843-.989 1.547-1.68 1.56-1.538.016.144-.024 1.02-.085 1.947l-1.305 1.496-.218.251c-.202.572-.253 1.027-.115 1.007.142-.021 1.23-1.023 1.892-1.137l.069-.455c.131-.87.47-1.213.685-1.78.045-.116 1.896-1.299 2.318-1.532.423-.234 1.37-.06 2.162-.99l.485-.572c.783-1.15 1.541-2.166 1.685-2.253l.147-.082c1.582-.872 2.189-1.012 2.189-1.012 1.752-.403 2.759-.05 2.235.784-.524.835-2.366 3.706-3.141 4.447l-.203.462c-.368.842-1.08 1.714-1.394 1.86l-.318.143c-1.044.419-1.244.64-.448.496l.686.057c.685.058 1.422-.609 1.66-1.132.237-.522 1.112-.068 1.11.778l.008.254c-.002.238-.526 1.288-1.162 2.334l-.827.428c-1.264.653-2.568.653-4.189.784-1.62.13-3.28 1.133-3.835 1.569-.214.168-.801.857-1.42 1.177-.978.505-2.07.654-2.215.654-.236 0 1.383.481 3.004-.48l.154-.09c.156-.092.453-.168.662-.17l.154.26c.362.615.633 1.216-.27 2.112-.906.898-2.76 1.246-2.941 2.993-.18 1.747-.361 2.645-1.04 2.994-.678.35-2.793.45-3.635.799-.842.35-2.289 1.408-2.289 1.408-1.492 1.092-2.185 2.073-1.538 2.184l1.131-.797c1.13-.798 2.26-2.148 3.12-2.347s3.843-.448 4.206-1.147c.361-.698.814-3.342 1.312-3.592.497-.25 3.3-1.994 3.527-3.742l.226-1.747c.407-.355 1.753-.892 2.991-1.198 1.239-.306 2.023.35 1.46.715-.564.367-.746.668-.404.668.34 0 2.372-.963 2.205-.643l.231.55c.474 1.139 1.07.908 1.115 2.36l.044 1.454c-.715 1.086-.597 1.323.263.525l.159-1.34c.158-1.337 0-1.927-.105-2.999l-.106-1.07 1.697-2.913.218-1.55c.12-.85 2.545-2.868 3.18-3.141l.483.518c.543.582.452 1.331.317 2.378l-.135 1.047c1.019 1.152 1.202 1.108.406-.1l.316-.997c.318-.997 1.048-1.897.86-2.844l-.078-.398c.112-.366 1.014-.928 2.003-1.245.99-.318 1.871.52 1.957 1.862l-.157.697-.097.427 2.018.922.382.127c.21.07 1.004.397 1.377.645.374.248 1.142 3.196 1.437 5.145 0 0 .068.449-3.43.184-3.498-.267-3.618-1.399-5.548-1.399-1.929 0-2.954 1.664-3.316 2.462s-.121 2.995-1.87 3.993l-1.748.998c-.265.444.095.444.801 0l.685-.268c.686-.267 2.132-1.13 2.795-3.193.664-2.063 2.204-2.793 3.725-2.128l1.52.665c1.533.402 1.415 1.3-.261 1.996 0 0-.19.079-1.27.854-.125.089-2.083 1.472-2.9 2.308-.844.863-1.265 2.058-1.958 2.99-.695.933-1.057 1.033-2.443 1.63-1.387.598-3.106 1.763-3.377 2.129l-.272.365c-1.143.423-1.198.766-.119.766l.482-.5c.482-.499 1.507-1.396 2.501-1.76.996-.368 2.835-.899 3.286-1.466l.453-.564.759-.614-.409.897-.138.348c-.665 1.662.421 2.794.542 3.727.087.674.27 2.257-1.153 3.84-.26.288-.574.579-.95.861l-.406.304c-.577.65-.683.807-.237.352l.927-.469a8.277 8.277 0 0 0 1.132-.677c.436-.315.582-.766.868-1.194.198-.297.599-.538.663-.89.423-2.326.12-2.526.12-3.458 0-.421-.228-.875-.21-1.481.022-.736.323-1.647.753-2.377.298-.505 1.02-.756 1.478-1.332l.278-.348c.28-.416.613-.77.74-.79l.218.042c.724.131 1.237.365 1.266.964.03.598-.092 1.994-.122 2.329-.03.331-.361 3.356.092 3.89.452.533 1.056.565.935 1.364l-.121.798c-.155.696-.285 1.652-.29 2.13-.006.474.352.626.26-.434l.166-.697c.165-.699.83-1.963.709-2.397-.122-.432-1.133-1.198-1.124-2.061.007-.864.912-4.026.882-5.288l-.03-1.264.11-1.214c0-.003 1.416-.42 3.145-.933 0 0 1.46-.432 2.203-1.344 1.025-1.265 1.385-4.26 1.447-5.59l.06-1.328c.754-.786 1.538-1.352 1.743-1.26l.089.098c.528.581.633 1.686.553 2.12-.08.438-.605 1.252-.421 1.863.185.61 1.211 1.83 1.238 1.917l.027.088c-1.103.815-1.47 1.481-.819 1.481l.66-.552.07-.057c.072-.07.336-.279.588-.465l.107.204c.104.204.184.437 0 .87-.184.438-.264 1.135 0 1.514.262.378 1.028.872 1.106 1.018l.078.142c-.287 1.286-.14 1.53.33.543l-.119-.659c-.13-.726-1.002-.929-1.078-1.336-.08-.406.526-1.786.367-2.156-.158-.373-.192-.952-.553-1.362-.315-.377-1.343-1.335-.948-2.09.395-.756 1.053-2.212.764-2.88l-.29-.666c1.041-.212 2.45-.182 3.13.062l.664.313 1.929.912c1.306 1.197 2.427 2.394 2.492 2.663l-.048.206c-.21.93-.895 1.802-1.265 2.497-.367.7-.42 2.676-.473 3.025-.054.348-1.897 1.277-2.372 1.916l-.425.577c.85-.507 1.546-.92 1.546-.92s.65-.184 1.444-.413l.226 1.097c.226 1.097 1.04 1.345 0 2.892-1.04 1.546-2.258 3.842-1.67 4.739.585.9 1.444 1.681 1.444 2.612s-1.17 3.762-1.198 3.901l-.192.969c.217 1.923.4 2.803.408 1.959.006-.843.273-2.812.362-2.85l.183.112c.542.334.692.567.633 1.031-.06.467-.27.667-.06 1.396.21.732 1.026 1.165 1.266 1.847l.241.683c.167.585.451.405.634-.4l-.649-.632c-.648-.633-.985-1.196-1.043-1.63-.057-.434.033-1.53-.268-2.062l-.301-.53c-.245-.642.398-2.175 1.425-3.41l-.698-.949c-.697-.95-1.738-1.746-1.376-2.844.362-1.099 2.261-3.342 2.261-4.79v-1.448l-.847-3.237.393-1c.216-.55.574-.504.795.104l.367.814.098.214c.292.209.532.382.534.382l.906.996.18.862c.182.865 1.811 2.596 2.413 3.062.36.278.847 1.638 1.025 2.859.12.821-.073 1.6.12 1.87.27.371 1.183.637 2.172 1.124.793.39 1.622 1.02 2.296 1.199l.634.167c.479.465 1.04 1.052 1.247 1.303l-.077.657c-.079.658-.27 1.447-.226 2.046s.588 1.298.632 2.144l.047.851c-.772.878-.853 1.214-.182.747l.724-1.048c.723-1.047-.136-1.298-.542-2.145-.408-.85.135-1.396.451-1.546l.151-.071c.429.273 1.098 1.244 1.488 2.158.39.91 1.76.45 1.052-.29l-1.001-1.208a14.426 14.426 0 0 1 -.846-1.105l-.128-.193-.31-.527c-.04-.067-.481-.865-.98-1.77l-.752-.604c-.206-.166-.871-.008-1.085-.166-1.267-.93-2.895-1.328-3.377-1.796l-.333-.32c-.256-1.357-.314-2.529-.126-2.606h.278c1.688 0 2.894 0 3.257.598.361.598.482 2.018 1.687 2.439 1.206.423 2.714.022 3.86 1.218a37.114 37.114 0 0 1 1.873 2.102c1.191 1.475 1.397 1.303.458-.378 0 0-.704-1.257-2.513-2.653-1.809-1.397-3.677-.607-3.98-1.435-.3-.828-.058-2.39-1.266-2.674-1.205-.283-1.545-.39-1.545-.39-1.722-.542-3.131-.988-3.131-.988l-1.197-.771-.397-.563c-.543-.77-.604-1.23-.482-1.867l.043-.232c.282-.026.829.03 1.216.126l.4.106 1 .27c.939.854 1.028.474.199-.844l-.748-.204c-.843-.233-2.529-.523-2.687-.64-.066-.049-.561-1.132-.62-1.803-.082-.952.282-1.61.251-1.917l-.019-.191c-.142-.416-.036-.84.237-.942l.214.273c.589.749 1.357 1.298 2.172 1.747.813.447 1.674.947 2.307 2.244.632 1.298.723 2.595 2.305 4.341l1.583 1.747c1.194.274 1.275-.085.181-.799l-1.357-1.442c-1.356-1.442-.588-3.048-1.261-4.745-.674-1.697-1-1.697-2.9-2.742-1.899-1.05-1.81-1.648-2.17-2.945-.362-1.298-1.356-1.695-2.84-2.395l-.913-.43c-.44-.439-1.427-1.684-2.196-2.767l-.297-.548c-.474-.872 1.249-.75 1.249-.75 1.786.125 4.283.463 5.55.75l1.738 2.267.22.286c.221.257.517.811.657 1.23l.19.534c.594 1.657 1.069 2.224 1.62 2.618.553.39 1.265 1.133 1.384 1.57l.119.433c.217 1.295.635 2.709.929 3.14.293.432.54.381.257-.217l-.16-1.003c-.157-1.003-.077-2.18-.592-3.382l-.514-1.197c.256-.415 1.018-.542 1.694-.278l.572.162.636.18c1.03.067 2.168 1.646 2.53 3.51l.122.994c.12.998 3.678 4.259 4.461 4.59.784.334 1.145.6 1.508 1.89.36 1.292.784 2.834 1.689 3.498.456.336 1.528.843 2.624 1.33.46.206.72 1.399 1.053 2.194.332.8 1.357 1.166 1.629 1.465.27.3-.061 1.664.119 2.496.182.832.966.963.664.696-.301-.264-.513-1.33-.392-1.861.12-.532.24-1.264.253-1.53.012-.267-1.249-.732-1.7-1.297-.452-.564-.03-.598.211-.898l.24-.298c.687.31 1.85 1.042 2.584 1.63.735.583.984.465.553-.27l-2.05-1.528c-2.05-1.53-4.343-2.129-5.366-2.86-1.026-.733-.905-2.062-.905-3.538 0-1.475-1.87-1.85-2.714-2.116-.844-.267-3.256-2.662-3.436-3.993-.15-1.09.925-1.473 1.316-1.575.271-.064.548-.127.761-.064l1.256.37c.7.923.45.343-.56-1.288 0 0-.024-.04-.867-.39-.842-.35-1.317-1.745-1.74-2.61l-.248-.513a190.123 190.123 0 0 1 -2.1-.46c-.004-.006.475.033 1.068.1l.385.052c.843.117 2.002.756 3.215.815l1.213.059c1.216-.225.754-.565-1.03-.754 0 0-.553-.06-.816-.295-.263-.23-.79-.986-3.478-1.103l-.638-.028c-.786-.133-1.489-.27-1.56-.298l-.067-.024c-1.583-.522-4.27-2.265-4.743-2.79-.475-.523-1.012-1.392-1.012-1.392-1.009-1.633-.66-2.731.775-2.445 1.434.288 3.95 1.175 5.59 1.97 0 0 .97.472 2.55.821l.497.11c1.205-.35 2.403-.539 2.66-.426l.085.23c.276.74 0 1.175.435 1.568.435.394 1.777.612 2.056.828.276.218 1.461 1.178 1.778 1.656.315.482-.238-.957-1.265-1.656-1.028-.696-1.977-1.002-2.214-1.352l-.072-.104c-.004-.195.316-.478.709-.627l.582.224c1.04.4 1.855.499 2.443 1.895l.238.566c.896.445 1.447 1.964 1.226 3.378l.3.949c.316 1.003 1.809 2.94 2.351 3.988s-.406 1.397-.272 1.946c.136.548.77 1.946 2.08 3.143 1.313 1.198 2.94 2.744 4.478 3.194l.937.273c.626.68.721.658.216-.05l-.113-.124c-.182-.2-2.984-2.095-3.572-2.643-.589-.55-2.262-1.798-2.85-2.696s.045-.747.497-1.496c.453-.749.271-.648-.677-2.345-.95-1.696-1.764-2.545-1.854-3.709l-.092-1.163c1.443-.45 3.808.138 5.254 1.3 0 0 .039.03.445 1.276.408 1.249 3.012 2.329 3.012 2.329 1.676.695 1.73.559.119-.304 0 0-.146-.079-1.096-1.177l-.301-.346c-.293-.543-.665-1.584-.828-2.314h.723c.722 0 1.928-.131 2.773.4.844.531 2.05 1.663 3.135 1.596s1.87-.266 3.075.465c1.207.733 2.637 1.349 2.637 1.349 1.667.723 1.7.639.071-.183 0 0-2.044-1.033-2.829-1.964-.784-.931-2.05-.331-3.254-.931-1.207-.599-2.052-1.897-3.197-2.114-1.146-.215-2.11.252-3.316-.48-1.042-.633-2.602-.727-4.033-1.14-.134-.042-.272-.084-.406-.13l-.085-.03-.173-.055c0-.002-.024-.01-.052-.021-.029-.009-.8-.29-1.669-.609l-.605-.377-1.113-.692c-.274-.588-.136-1.045.307-1.017.444.025.523-.033.176-.131-.348-.101-1.467-.622-1.493-.636-.027-.015-.167-.094-.236-.136l-.055-.037-.765-.531c-1.06-.48-1.928-.874-1.928-.877 0 0-1.45-.23-3.222-.514 0 0-1.973-.317-2.962-.534-.988-.218-2.648-1.222-3.32-2.137-.67-.914-2.528-2.659-3.279-3.139-.752-.48-1.097-.599-1.097-.599-1.707-.596-3.76-1.572-4.559-2.169l-.944-1.027c-.401-.433-1.304-.905-1.68-1.514-1.644-2.652-2.922-7.168-2.629-15.359.276-7.671.317-8.62.317-8.62.087-1.975.291-3.986.454-4.472s1.476-1.844 2.917-3.015c0 0 4.083-3.328 6.43-4.952l.743-.514 1.466-.926.725-.043c.4-.025 2.04.287 2.198.461.161.175.466.283.68.24.212-.043 1.656-.243 2.09-.238.434.004 1.407-.37 1.794-.42h.179c.815 0 .723-.235 1.447-.635.723-.398 1.358-.599 2.533-1.495l.874-.67c-.011-.071.866-.153 1.949-.179 1.084-.028 2.5.631 3.146 1.465.646.833 1.787 1.978 2.533 2.544s2.211.85 3.256.63l.905-.397c.903-.4 1.718-.3 2.17-.527.453-.226.904-1.27 2.051-2.069 1.146-.797 1.115-.2 1.478-.2.36 0 .722.4 2.894 1.533 2.169 1.133 3.436.064 4.702-.834l1.266-.897c.449.952 1.588 1.849 2.533 1.995l.362-.264c.362-.263.543.264 1.447 0 .905-.263.723-1.134 1.086-2.1.36-.967.722-.33.995-.83l.203-.372c1.081-.366 1.737-.692 1.455-.726l-.302-.184c-.552-.333-.362-1.412-.362-2.104 0-.694.182-.993.033-1.231l-.15-.238c-.383.147-1.704.202-2.935.124l-.362-.3c-.214-.175.332-.598.514-1.564.126-.673-.159-1.435-.084-1.887l.18-1.097c.448.605 1.492 1.32 2.319 1.59l-.094.995c-.09.964.206 1.714.612 2.377.38.62.708 1.056.872 1.025l.542-.099c.896.056 1.934.323 2.307.599.373.273.679.79.679 1.144 0 .355.737 2.225 1.64 2.94l.348-.192c.544-.3.273-.5.815-1.199.544-.699 1.356-.2 2.171-.998l.814-.797c-.05-.933.805-1.608 1.9-1.497l.542-.8.543-.798c-.26-.558.31-1.097 1.266-1.196l.813-.6.815-.597c-.797-.576-1.733-.8-2.08-.495-.35.306-1.244.708-1.99.894z" fill="#fe5f55"/></g></svg>