<svg viewBox="0 0 153.1 232.2" xmlns="http://www.w3.org/2000/svg" xmlns:xlink="http://www.w3.org/1999/xlink"><clipPath id="a"><path d="m17.6 28.3h125.3v273.9h-125.3z"/></clipPath><switch><g><path d="m100.4 89.8c1.9-.5 3.8-.8 5.9-.8 4.8-.8 7.1-2.2 7.1-4 0-.1-4-10.2-11.9-30.2-7.9-20.2-13.1-30.2-15.5-30.2-1.8 0-5.2 4.7-10.1 14.2-4.9 9.4-10.5 19.3-16.6 29.4-6.3 9.9-9.3 16.2-9.3 18.3 0 1.6 1 2.6 3 3.2 2.2.6 3.2.8 3.6.8l2-.2c1.1 0 2.6.1 4.7.5 1.9.4 3.4.6 4.1.6 1.7 0 4.3-.4 8-1s6.1-.8 7.1-.8 2.2.1 3.5.4c1.3.4 2.3.5 2.6.5 1 0 1.7-.5 2-1.6 1.8.6 3.4.8 4.7.8l3.1-.1c1 0 1.6 0 2 .2m-5-84.2c5.5 19 22.8 59.5 51.8 121.7 3.8 5.9 5.9 10.8 5.9 14.8 0 1-.4 1.8-1.1 2.6-.6.7-3 1.7-7.2 2.9-4.1 1.3-6.8 2.2-8.2 2.8-1-1.3-1.6-2.5-1.6-3.6s.2-2.2.5-3.5l.5-1.6c0-2.3-1.1-6.8-3.4-13.9s-6.1-16-11.5-26.9c-.5-.2-1.1-1.1-1.7-2.3-.6-1.3-2-1.9-4.3-1.9-1.3 0-2.5.6-3.8 1.9-.1-.5-1.6-1.1-4.3-1.6l-3-.7h-3.1c-7 0-11.9.4-14.5 1.2-2.8.7-4.1 1.2-4.3 1.2-1 0-1.7-.6-2.2-1.6-4.3 1.2-7.4 1.6-9.5 1.3-2-.2-4-.4-6-.4-4.4 0-8.6.5-12.6 1.6-3.8 1.1-6.4 1.6-7.4 1.6-1.1.1-2.2 1-3.2 2.6l-1.4-1c-7 14.3-12.2 25.7-15.6 34-.5 5.2-1.6 9.5-3.2 13.1-1.8 3.6-3.4 5.4-4.8 5.4h-.2c-2.3-1-7.1-2.2-14.3-3.5-1.1-.1-1.6-.7-1.6-1.8 0-2.3 1.2-4.3 3.6-6.4 2.4-1.9 3.7-3.4 4.1-4.4 2.3-4.2 4.3-7.2 6.1-8.8 2.5-3 5.6-7.8 9.4-14.5 3.7-6.7 6.7-11.3 9.1-13.6.1-3 3.4-9.5 9.8-19.4 6.5-9.8 12-19.2 16.8-27.8 4.7-8.8 7.3-13.4 7.9-14 9.5-13.7 14.3-22.9 14.3-27.8v-.3c1.6 0 2.4-.4 2.4-1.1v-1c0-2.5 1.7-5.3 5-8.2l1.4.7c1.8-2.3 3.1-3.4 4.2-3.4 1.2 0 1.8.8 1.8 2.8 0 1-.1 2-.6 2.8z" fill="#eb353e"/><path clip-path="url(#a)" d="m142.9 93c-.5 4-1.4 7.3-3 10.1-2.3.5-3.5.7-3.7.7-2.5 0-5.4-.2-8.6-.5-3.2-.2-5.3-.4-6.2-.4-.6 0-1.4 0-2.6.1-1.2-1.3-5.5-1.9-12.7-1.9l-17 .7h-.6c-.1 0-.1 0 0-.1-1.3 5-2.4 12.4-3 22.1-.7 9.7-1 17.8-1 24.2l.5 10.9-1.2 6c-.5 3.1-.7 5.6-.7 7.4-.1 1.9-.1 4.7-.1 8.4l1.2 21.6c0 3-.4 4-1.1 2.5.5-.2 1 1.7 1.7 6 .7 4.2 1.3 7.3 1.9 9.4.5 1.9.8 3.1.8 3.6 0 1.9-1.8 3.4-5.4 4.4.1-.8.2-1 .2-.1 0 1.9-1 2.9-2.8 2.9-1.3 0-1.9-.4-1.9-1.2-.1 1-1.6 1.7-4.2 2.3-.5-1.2-1-1.8-1.4-1.9-.5.1-1.4.1-2.8.2-1.2.1-2.3.2-3 .2h-2.8c1.3-2.9 1.8-6 1.4-9.2-.2-2.3-.2-4.1-.2-5.4 0-.2.1-.8.4-1.6 2.2-5.8 3.2-18 3.2-36.7l.7-46.1c0-14.4-.7-23.6-1.9-27.7.1-.6.2-1 .2-1.2v-.5s-.4 0-1.1-.1l-5.9-.5c-2.6-.2-4.6-.4-5.5-.4-4.4 0-7.3.8-8.6 2.6-2.2-.7-3.5-1.1-4.2-1.1-.6 0-1.6.4-2.9.8-1.3.6-3.2 1-6 1-3.1 0-6-1.1-8.4-3.1-.5-1-.6-1.9-.6-2.9 0-1.2.2-2.6 1-4.4.6-1.8.8-3.1.8-3.8v-1.6c2-1.2 3.8-1.7 5.6-1.7 1 0 3.6.2 8 1 4.6.7 9.4 1.1 14.6 1.1h15.1c3.5 0 6.4-.4 8.5-1l1-1.6c2.6.5 4 .8 3.8.8l.2-.4c1.4 0 2.8.6 4.1 1.7 1.3 1.2 2 1.8 2.2 1.9.1 0 1.3-.1 3.7-.5s5-.5 8-.5l15.4-.4 2.8.4h.7c1.2 0 3.2-.2 6.1-.5 3-.4 5.3-.5 7.1-.5 5.4.4 8.8 1.7 10.2 4.5" fill="#0e1321"/></g></switch></svg>
